<?xml version="1.0" standalone="no"?>
<!DOCTYPE svg PUBLIC "-//W3C//DTD SVG 20010904//EN"
 "http://www.w3.org/TR/2001/REC-SVG-20010904/DTD/svg10.dtd">
<svg version="1.0" xmlns="http://www.w3.org/2000/svg"
 width="1300.000000pt" height="1300.000000pt" viewBox="0 0 1300.000000 1300.000000"
 preserveAspectRatio="xMidYMid meet">
<metadata>
Created by potrace 1.11, written by Peter Selinger 2001-2013
</metadata>
<g transform="translate(0.000000,1300.000000) scale(0.100000,-0.100000)"
fill="#000000" stroke="none">
<path d="M7095 9551 c-33 -16 -87 -42 -120 -56 -33 -15 -71 -36 -85 -45 -35
-25 -203 -36 -285 -20 -128 27 -182 13 -254 -62 -24 -24 -35 -27 -131 -33 -58
-4 -116 -9 -130 -10 -14 -2 -45 -6 -69 -9 -77 -10 -151 -36 -180 -64 -33 -33
-85 -117 -94 -154 -8 -32 -12 -35 -285 -179 -18 -9 -38 -22 -45 -27 -7 -5 -41
-24 -77 -43 -174 -89 -193 -130 -124 -266 24 -48 46 -101 49 -118 13 -89 38
-167 68 -212 23 -34 56 -47 100 -39 22 4 30 -3 57 -44 18 -27 29 -54 25 -60
-7 -11 -78 -3 -83 11 -2 5 -8 7 -12 4 -5 -3 -26 2 -47 10 -21 9 -63 18 -93 19
-99 4 -170 -53 -170 -136 0 -44 19 -58 64 -48 50 11 131 2 178 -18 87 -40 91
-41 177 -43 l64 -2 -24 -20 c-49 -40 -58 -63 -43 -115 21 -71 52 -126 103
-182 49 -54 69 -61 140 -46 34 7 34 7 -30 -56 -121 -119 -166 -191 -210 -338
-21 -70 -23 -95 -24 -370 -1 -162 -5 -319 -9 -347 -15 -115 -60 -197 -131
-239 -105 -61 -296 -21 -441 94 -58 46 -121 108 -127 125 -9 25 -29 -81 -32
-168 -3 -63 2 -110 14 -157 18 -66 71 -166 97 -181 8 -4 14 -15 14 -22 0 -8 5
-15 11 -15 7 0 19 -8 28 -18 40 -44 188 -121 232 -122 9 0 19 -3 23 -7 9 -9
39 -12 141 -14 93 -1 158 6 235 27 30 8 64 17 76 19 32 7 153 73 220 121 52
37 67 42 105 40 24 -1 49 1 54 5 6 4 30 9 55 12 176 19 365 136 475 292 14 20
14 20 35 -2 11 -13 18 -23 16 -23 -3 0 16 -19 42 -42 26 -24 49 -46 52 -49 3
-3 30 -21 60 -40 85 -54 192 -93 320 -116 14 -2 69 -6 123 -8 81 -3 102 -8
120 -24 58 -54 88 -75 162 -110 97 -47 129 -58 228 -75 201 -35 396 10 506
116 63 60 94 130 107 240 8 63 8 66 1 98 -3 14 -8 42 -12 63 -4 20 -9 37 -11
37 -2 0 -28 -13 -57 -29 -73 -42 -184 -63 -247 -48 -8 2 -31 7 -50 11 -80 19
-156 90 -185 173 -22 61 -13 180 19 249 28 61 97 174 127 209 22 24 98 176
105 207 25 115 25 189 -1 238 -9 17 -11 30 -5 30 5 0 10 7 10 15 0 8 3 15 8
15 4 0 12 10 18 23 7 12 28 52 47 90 20 37 34 67 31 67 -3 0 1 10 7 22 16 29
40 138 34 148 -3 5 -2 11 3 14 14 8 5 143 -14 226 -10 41 -34 108 -55 148 -21
39 -37 72 -35 72 1 0 26 -12 55 -26 29 -14 55 -23 58 -20 7 6 -23 96 -55 166
-14 30 -25 58 -24 63 1 4 -3 7 -8 7 -6 0 -10 4 -10 10 0 5 -16 34 -35 64 -37
59 -42 72 -23 60 7 -4 27 -9 44 -9 l32 -2 -46 46 c-82 81 -121 185 -127 346
-5 117 -13 173 -34 219 -17 39 -80 116 -96 116 -4 0 -19 9 -35 20 -34 24 -182
73 -271 90 -61 12 -68 16 -92 54 -52 81 -183 206 -216 206 -9 0 -43 -14 -76
-29z m165 -142 c25 -26 53 -57 63 -70 61 -80 80 -198 39 -242 -12 -13 -22 -27
-22 -33 0 -5 -28 -27 -62 -49 -88 -57 -87 -66 6 -80 22 -3 45 -10 53 -16 7 -6
13 -9 13 -5 0 3 32 -11 70 -30 39 -20 70 -40 70 -45 0 -5 6 -9 14 -9 39 0 298
-303 287 -335 -2 -4 2 -11 7 -14 9 -6 62 -111 66 -134 2 -7 8 -25 15 -42 7
-16 14 -41 16 -55 2 -14 8 -38 12 -55 9 -32 9 -143 0 -185 -21 -102 -61 -200
-109 -269 -63 -89 -189 -192 -313 -254 -72 -36 -202 -85 -244 -93 -14 -3 -28
-7 -33 -10 -4 -3 -8 0 -8 5 0 6 4 11 8 11 5 0 18 8 29 18 11 9 44 37 73 62 84
72 168 159 230 240 19 24 42 52 51 62 22 25 115 214 130 263 19 62 21 83 22
180 2 160 -71 322 -203 453 -50 50 -180 145 -188 137 -4 -3 -2 -9 4 -13 30
-20 163 -236 164 -267 0 -3 2 -10 5 -17 33 -108 39 -149 38 -268 -1 -96 -5
-127 -25 -190 -17 -56 -76 -162 -109 -197 -29 -32 -52 -46 -32 -20 23 28 35
144 24 222 -1 6 -23 -30 -49 -80 -56 -104 -141 -235 -153 -235 -5 0 -9 -6 -9
-12 0 -7 -26 -45 -58 -85 -31 -39 -64 -81 -72 -94 -8 -12 -23 -31 -32 -41 -10
-10 -18 -22 -18 -27 0 -5 -3 -11 -8 -13 -14 -6 -107 -161 -134 -223 -15 -33
-30 -77 -33 -98 -9 -46 -25 -58 -26 -20 0 15 -3 39 -6 53 -13 60 -6 227 14
295 17 62 82 189 116 226 15 17 26 34 23 37 -12 11 -226 -176 -226 -198 0 -4
-4 -10 -8 -12 -13 -5 -67 -88 -99 -153 -84 -167 -100 -351 -48 -565 9 -39 47
-130 57 -136 7 -5 8 -2 3 5 -10 18 -7 229 5 261 1 4 20 -75 34 -145 7 -34 66
-188 78 -202 6 -7 7 -13 4 -13 -4 0 2 -13 13 -29 12 -16 21 -34 21 -40 0 -6 5
-11 10 -11 6 0 10 -5 10 -10 0 -13 80 -122 97 -133 7 -4 13 -12 13 -16 0 -21
142 -146 233 -206 31 -21 57 -39 57 -41 0 -5 -120 9 -140 16 -3 1 -8 2 -12 1
-4 0 -20 4 -35 10 -15 6 -39 13 -53 15 -43 8 -177 87 -239 139 -124 106 -226
269 -275 439 -34 117 -39 151 -39 306 0 156 15 238 67 367 19 48 34 89 32 91
-4 3 -95 -31 -136 -51 -111 -53 -238 -178 -292 -288 -39 -79 -68 -145 -73
-169 -2 -8 -10 -44 -19 -80 -22 -93 -25 -114 -32 -214 -8 -97 -17 -93 -29 10
-4 32 -9 70 -11 84 -9 59 -4 231 11 304 15 78 78 226 96 226 5 0 9 6 9 13 0
18 85 105 156 159 57 44 143 96 192 118 23 10 73 33 185 85 32 15 64 28 71 29
8 1 20 7 27 12 17 13 76 37 85 34 4 -1 10 3 13 8 3 5 35 22 71 38 36 15 67 31
70 34 3 3 25 16 50 29 82 44 204 134 263 193 133 136 184 341 127 513 -19 58
-22 65 -31 65 -5 0 -9 6 -9 13 0 26 -92 123 -156 164 -52 34 -140 75 -191 89
-60 17 -243 27 -263 14 -18 -11 113 -134 177 -168 29 -15 53 -30 53 -34 0 -5
5 -8 11 -8 13 0 97 -66 120 -95 10 -11 28 -33 42 -49 14 -16 30 -40 36 -53 27
-58 32 -70 37 -93 11 -54 13 -110 3 -115 -5 -4 -7 -10 -4 -14 10 -17 -26 -110
-62 -157 -43 -57 -113 -123 -130 -124 -6 0 -13 -5 -15 -11 -2 -6 -22 -22 -43
-35 -67 -39 -325 -164 -340 -164 -3 0 -45 -18 -93 -41 -309 -145 -441 -226
-544 -333 -38 -38 -68 -74 -68 -79 0 -5 -8 -21 -18 -35 -26 -40 -50 -115 -55
-174 -1 -10 -5 -18 -9 -18 -6 0 -4 -557 2 -585 1 -5 2 -12 1 -15 -1 -3 -3 -48
-6 -100 -2 -52 -9 -110 -14 -128 -5 -18 -10 -34 -11 -37 -7 -36 -33 -95 -42
-95 -5 0 -7 -4 -4 -8 5 -8 -21 -39 -60 -71 -19 -17 -81 -40 -106 -41 -10 0
-18 -4 -18 -9 0 -11 46 -42 69 -46 9 -2 17 -4 19 -5 4 -4 21 -7 40 -9 11 -1 0
-12 -30 -31 -49 -31 -118 -62 -118 -54 0 3 -6 2 -12 -3 -39 -23 -250 -23 -329
1 -106 32 -189 99 -235 189 -32 65 -31 70 14 47 95 -49 154 -63 257 -63 142 0
217 33 300 134 24 29 68 123 68 144 0 8 4 15 9 15 4 0 7 3 6 8 -1 4 1 27 5 52
15 91 17 127 23 304 6 172 11 271 14 271 1 0 3 18 6 40 8 79 46 202 90 293 24
50 49 92 54 92 6 0 10 4 10 10 0 13 94 108 150 152 76 60 374 222 424 231 6 1
13 5 16 8 3 3 61 29 129 58 205 88 312 151 388 228 23 24 39 43 36 43 -3 0 1
8 9 18 57 66 73 258 31 363 -21 53 -55 84 -108 98 -21 5 -40 9 -42 7 -1 -1 9
-24 22 -51 26 -50 32 -120 15 -160 -9 -22 -9 -21 -16 13 -2 13 -10 33 -18 43
-13 19 -14 19 -21 2 -5 -10 -9 -21 -10 -25 -2 -5 -3 -9 -5 -10 -2 -3 -3 -10
-23 -103 -14 -61 -21 -74 -58 -107 -24 -21 -48 -38 -55 -38 -15 0 -47 -37 -37
-43 17 -10 140 1 177 17 22 9 41 14 44 12 2 -3 -8 -26 -22 -51 -32 -53 -82
-81 -141 -79 -115 6 -214 6 -245 0 -64 -12 -141 -37 -196 -63 -55 -26 -164
-119 -164 -140 0 -6 -26 -37 -57 -68 -65 -64 -200 -142 -260 -150 -36 -4 -45
-1 -76 28 -46 41 -98 143 -88 170 5 14 33 28 93 48 69 22 94 36 135 76 141
137 206 171 332 175 107 3 106 36 -5 140 -37 35 -92 88 -124 118 -169 161
-189 167 -290 92 -19 -15 -44 -28 -55 -29 -11 -2 -45 -8 -75 -15 -83 -17 -97
-21 -130 -36 -14 -6 -38 -20 -55 -31 -16 -12 -34 -21 -38 -21 -11 0 -44 78
-50 118 -3 19 -8 36 -11 39 -7 7 20 59 53 102 31 41 35 61 15 82 -13 15 -19
14 -66 -9 -55 -26 -82 -22 -84 14 -1 30 25 53 107 93 41 21 82 42 90 47 8 5
16 9 19 10 15 3 47 19 60 30 8 7 17 12 20 12 3 0 55 24 116 54 l111 55 21 -49
c15 -37 25 -48 42 -48 18 0 21 -4 17 -21 -6 -21 -4 -21 54 -15 33 3 68 10 77
15 9 5 34 11 55 14 40 5 77 31 77 53 0 7 -6 12 -12 10 -7 -3 -26 -7 -43 -11
l-29 -6 38 34 c34 32 36 36 21 51 -9 9 -22 13 -28 9 -26 -16 -47 -12 -66 13
-18 23 -19 28 -6 41 8 8 35 15 60 17 55 3 61 8 34 32 -30 27 -154 30 -215 4
l-44 -19 15 29 c17 33 60 66 96 74 130 28 484 44 561 25 29 -7 59 -12 66 -11
6 2 12 -1 12 -6 0 -5 7 -9 15 -9 23 0 202 -93 231 -120 14 -13 28 -23 32 -23
6 0 27 -16 88 -68 19 -16 27 -18 62 -14 22 3 1 28 -70 81 -88 67 -122 123
-114 189 3 26 10 48 16 50 5 2 10 9 10 15 0 14 67 75 105 94 43 23 176 64 185
58 5 -3 11 -1 15 4 7 12 32 -7 95 -70z m270 -232 c94 -34 159 -89 192 -163 10
-24 19 -46 19 -49 0 -2 5 -19 10 -37 5 -18 12 -44 14 -58 2 -14 7 -36 11 -50
7 -22 4 -21 -22 10 -61 73 -220 210 -257 223 -6 2 -12 24 -13 50 -1 25 -5 55
-9 67 -8 24 5 25 55 7z m-1929 -844 c1 -10 3 -40 5 -66 2 -35 -1 -49 -11 -54
-24 -9 -60 22 -72 60 -15 49 3 70 65 76 6 0 13 -7 13 -16z m297 -157 c39 -12
41 -22 5 -31 -16 -3 -58 -21 -95 -40 -37 -18 -76 -31 -87 -28 -13 3 -25 -4
-37 -23 -30 -44 -80 -91 -100 -92 -45 -4 -95 -1 -121 7 -2 1 -5 1 -8 2 -2 0
-35 14 -72 31 -55 25 -80 31 -130 30 -34 -1 -64 2 -68 7 -3 5 7 19 21 30 27
21 73 23 129 7 149 -43 151 -43 196 -29 25 7 69 34 104 64 33 29 74 58 90 65
34 15 123 16 173 0z m-133 -170 c24 -20 28 -28 19 -42 -6 -10 -23 -22 -38 -27
-33 -11 -44 0 -40 41 1 15 2 33 3 40 2 19 23 14 56 -12z m2102 -463 c-3 -5 -8
-25 -11 -45 -16 -102 -69 -171 -282 -367 -73 -66 -144 -153 -151 -184 -1 -7
-9 -34 -16 -62 -15 -55 -15 -109 1 -230 6 -44 11 -98 11 -120 -1 -22 0 -44 0
-49 1 -13 67 75 75 102 8 24 25 30 27 10 7 -87 17 -133 47 -207 54 -139 137
-228 258 -276 56 -23 85 -28 159 -29 97 -1 157 4 165 14 3 4 17 10 32 13 25 7
26 6 18 -22 -28 -98 -114 -179 -210 -196 -61 -11 -159 -7 -225 9 -274 68 -471
304 -530 638 -24 138 -6 424 28 449 5 3 8 9 8 13 -1 3 6 21 15 39 17 31 17 32
-2 17 -65 -50 -154 -184 -154 -232 0 -8 -3 -18 -7 -21 -3 -4 -8 -19 -9 -34 -2
-16 -6 -44 -9 -63 l-7 -35 -24 58 c-14 32 -26 72 -27 90 -2 18 -5 37 -8 42 -4
9 -4 72 1 85 1 3 3 14 5 24 13 68 40 114 100 168 28 26 148 91 170 93 6 1 17
4 25 8 20 8 74 30 80 32 44 11 90 30 180 75 89 43 138 78 198 139 50 51 82 76
69 54z m-1571 -451 c0 -82 8 -172 19 -217 2 -11 9 -40 16 -65 6 -25 12 -56 14
-70 2 -14 13 -64 23 -112 28 -126 24 -246 -10 -318 -26 -54 -92 -135 -110
-135 -5 0 -12 -5 -16 -11 -19 -30 -133 -71 -220 -80 l-63 -7 46 71 c42 66 88
182 99 249 18 111 26 186 31 263 7 106 15 169 25 213 6 23 13 51 15 61 17 71
55 152 101 214 14 17 26 32 27 32 1 0 2 -39 3 -88z"/>
<path d="M7070 9383 c-72 -35 -112 -105 -95 -170 7 -31 56 -113 66 -113 4 0
30 -16 59 -35 29 -19 59 -35 69 -35 28 1 95 54 127 102 29 43 31 50 23 99 -8
48 -31 90 -44 78 -3 -3 -7 -19 -8 -35 -5 -35 -25 -76 -35 -70 -5 3 -14 1 -22
-4 -16 -10 -44 2 -77 33 -27 24 -31 86 -9 129 22 42 4 49 -54 21z"/>
<path d="M5523 8761 c-48 -22 -63 -46 -52 -81 4 -14 7 -21 8 -17 1 4 9 3 20
-2 23 -13 50 9 74 61 30 64 21 71 -50 39z"/>
<path d="M6065 8673 c-11 -29 -17 -95 -10 -120 7 -31 37 -57 120 -106 39 -23
94 -66 124 -95 30 -29 56 -51 58 -48 12 12 -21 84 -59 130 -23 28 -46 53 -51
54 -4 2 -22 17 -40 33 -17 16 -34 29 -37 29 -4 0 -21 21 -39 47 -30 42 -37 58
-40 86 -2 14 -19 7 -26 -10z"/>
<path d="M6534 6017 c-32 -71 -176 -207 -246 -233 -10 -3 -18 -13 -18 -20 0
-8 8 -17 18 -20 50 -15 124 -60 140 -86 40 -62 -4 -118 -88 -114 -48 3 -63 10
-123 58 l-29 23 -20 -28 c-11 -15 -38 -47 -59 -70 -21 -23 -39 -47 -39 -52 0
-6 18 -28 41 -50 22 -21 48 -49 56 -62 19 -29 22 -29 54 1 55 51 105 60 172
31 17 -7 54 -65 42 -65 -3 0 -2 -8 3 -17 13 -23 -10 -98 -40 -130 -34 -36
-126 -72 -183 -72 -11 0 -42 -2 -68 -4 -26 -2 -50 0 -53 4 -2 5 -11 6 -18 3
-29 -11 -129 28 -170 66 -39 36 -40 40 -40 101 0 79 2 86 43 149 18 28 32 52
30 54 -2 1 -30 15 -62 31 -31 16 -74 46 -95 67 -44 44 -61 43 -82 -5 -7 -17
-39 -58 -70 -90 -62 -63 -62 -65 -3 -106 48 -33 81 -108 76 -174 -2 -28 -8
-54 -14 -55 -5 -2 -7 -7 -4 -12 5 -8 -61 -79 -76 -81 -14 -2 -22 -5 -52 -17
-73 -30 -182 -6 -236 51 -28 31 -40 107 -21 141 24 47 100 54 116 11 8 -19 30
-19 38 0 3 8 8 48 12 88 6 72 6 73 -22 92 -16 10 -34 23 -41 29 -35 31 -42 34
-62 29 -11 -3 -19 -9 -16 -13 10 -17 -19 -60 -51 -75 -61 -29 -105 12 -109
102 -2 38 3 64 20 98 13 25 20 47 16 50 -8 4 -55 14 -102 20 -15 2 -35 7 -45
13 -11 5 -37 18 -59 28 -22 10 -59 38 -84 62 -25 23 -53 42 -63 42 -22 0 -23
2 4 -56 12 -27 22 -51 23 -54 0 -3 4 -10 7 -16 17 -26 76 -174 70 -174 -4 0
-2 -4 3 -8 6 -4 38 -70 72 -147 34 -77 85 -193 113 -258 l52 -117 -32 -30
c-38 -35 -36 -59 11 -171 93 -217 110 -298 95 -457 -8 -96 -142 -87 1292 -87
1064 0 1262 2 1276 14 14 12 16 29 13 110 -6 136 18 235 108 446 37 85 35 124
-5 152 -24 17 -24 23 -4 71 8 20 15 38 14 40 0 1 6 15 14 30 8 15 31 65 52
112 20 47 47 109 60 138 13 29 24 54 24 57 0 2 14 34 31 72 54 119 76 167 88
198 6 17 22 53 36 80 l24 50 -22 6 c-12 3 -24 1 -26 -5 -7 -18 -59 -66 -70
-66 -6 0 -11 -4 -11 -10 0 -5 -5 -10 -11 -10 -6 0 -24 -9 -40 -21 -16 -11 -29
-17 -29 -13 0 3 -7 1 -15 -6 -8 -7 -15 -10 -15 -7 0 3 -15 0 -34 -8 -18 -8
-36 -12 -39 -9 -3 3 -21 2 -41 -1 l-36 -7 26 -45 c63 -107 5 -254 -83 -211
-22 11 -54 55 -66 93 -4 10 -64 -26 -108 -66 -21 -19 -26 -31 -22 -59 8 -67
11 -95 12 -112 1 -22 29 -24 37 -4 8 20 55 35 81 25 66 -24 64 -141 -3 -201
-46 -40 -155 -49 -237 -18 -103 38 -146 126 -116 234 12 43 71 110 109 124 24
9 24 9 -19 52 -56 57 -112 131 -106 140 3 4 -3 11 -12 14 -10 4 -26 -2 -42
-17 -62 -57 -76 -67 -88 -67 -7 0 -13 -4 -13 -8 0 -5 -19 -16 -42 -25 l-42
-17 26 -27 c54 -59 78 -170 50 -228 -25 -53 -115 -114 -149 -101 -7 3 -15 1
-18 -4 -3 -5 -13 -9 -23 -9 -188 -3 -241 5 -308 51 -71 48 -93 162 -40 215 33
32 87 45 120 28 13 -7 27 -11 29 -9 2 3 18 -10 36 -28 l31 -32 65 69 c71 75
70 66 12 132 -16 17 -28 34 -27 38 0 3 -10 15 -25 26 l-25 21 -31 -27 c-58
-48 -103 -60 -182 -46 -4 0 -15 17 -23 36 -12 31 -12 39 0 63 15 28 68 73 92
76 7 1 17 5 20 9 4 4 15 7 25 7 9 0 19 7 22 15 4 9 -11 24 -46 44 -95 54 -227
200 -219 243 1 3 -5 8 -12 11 -9 4 -20 -10 -32 -36z m326 -1131 c144 -6 248
-12 370 -22 41 -3 93 -7 115 -9 22 -2 40 -4 40 -5 0 -1 20 -3 45 -5 25 -1 47
-4 50 -5 3 -1 9 -2 14 -1 5 1 48 -3 95 -8 47 -6 106 -13 130 -16 25 -3 47 -8
50 -10 3 -3 -3 -34 -13 -68 -9 -34 -19 -71 -21 -82 -2 -11 -13 -56 -26 -100
-12 -44 -22 -85 -22 -92 0 -6 -14 -13 -30 -16 -39 -5 -2157 -5 -2196 1 -24 3
-31 10 -36 36 -6 28 -21 85 -46 176 -6 19 -11 45 -12 58 -1 12 -6 22 -11 22
-5 0 -7 3 -3 6 3 3 2 17 -3 30 -11 27 -4 34 42 38 18 2 58 7 88 11 30 3 80 8
110 11 30 3 69 6 85 8 17 2 59 6 95 9 179 18 277 24 500 32 85 4 155 7 156 8
4 4 297 -1 434 -7z"/>
<path d="M6360 4802 c-18 -19 -20 -248 -3 -272 12 -16 31 -18 203 -18 168 0
192 2 200 17 4 9 9 71 9 138 1 96 -2 123 -14 133 -22 19 -378 20 -395 2z m239
-87 c17 -20 31 -41 31 -48 0 -13 -62 -87 -73 -87 -12 0 -77 74 -77 87 0 17 59
83 75 83 7 0 27 -16 44 -35z"/>
<path d="M5935 4802 c-1 -2 -54 -5 -116 -8 -77 -3 -118 -9 -127 -18 -18 -18
-20 -219 -2 -240 8 -11 33 -15 89 -15 43 0 82 -1 87 -2 5 -1 52 -1 105 0 129
1 131 4 131 117 0 175 3 168 -92 169 -40 0 -73 -1 -75 -3z m-5 -84 c16 -18 30
-40 30 -49 0 -8 -16 -33 -35 -54 l-35 -40 -40 40 c-22 21 -40 44 -40 50 0 17
63 85 78 85 7 0 26 -15 42 -32z"/>
<path d="M7030 4790 c-15 -15 -18 -36 -17 -129 0 -142 -2 -139 132 -141 226
-2 274 0 281 12 4 7 8 61 9 122 0 123 -5 135 -63 137 -20 1 -64 3 -97 5 -219
13 -227 12 -245 -6z m237 -67 c47 -54 47 -59 4 -105 l-39 -42 -41 41 c-23 22
-41 45 -41 50 0 15 67 83 81 83 6 0 23 -12 36 -27z"/>
<path d="M6182 4705 c-29 -33 -28 -48 8 -87 l30 -33 30 33 c17 18 30 39 30 47
0 21 -41 65 -60 65 -9 0 -26 -11 -38 -25z"/>
<path d="M6857 4702 c-15 -15 -27 -31 -27 -36 0 -10 54 -76 63 -76 7 0 32 23
55 52 15 19 3 52 -27 75 -24 18 -35 16 -64 -15z"/>
<path d="M5522 4692 c-36 -35 -39 -49 -14 -77 39 -45 49 -48 72 -23 42 45 43
55 7 94 l-33 37 -32 -31z"/>
<path d="M7530 4690 c-17 -17 -30 -36 -30 -43 0 -11 46 -69 62 -78 4 -2 21 15
38 38 31 42 31 43 13 67 -35 47 -50 50 -83 16z"/>
</g>
</svg>
